<svg width="48" height="48" viewBox="0 0 48 48" fill="none" xmlns="http://www.w3.org/2000/svg">
<path fill-rule="evenodd" clip-rule="evenodd" d="M8.75 17C8.75 12.4437 12.4437 8.75 17 8.75C21.5563 8.75 25.25 12.4437 25.25 17C25.25 17.7249 25.1565 18.428 24.9809 19.0978L26.365 19.7218C26.6157 18.858 26.75 17.9447 26.75 17C26.75 11.6152 22.3848 7.25 17 7.25C11.6152 7.25 7.25 11.6152 7.25 17C7.25 22.3848 11.6152 26.75 17 26.75C18.1692 26.75 19.2903 26.5442 20.329 26.1669L19.8815 24.7328C18.9845 25.0672 18.0136 25.25 17 25.25C12.4437 25.25 8.75 21.5563 8.75 17Z" fill="#898989"/>
<path fill-rule="evenodd" clip-rule="evenodd" d="M1.75 17C1.75 8.57766 8.57766 1.75 17 1.75C25.4223 1.75 32.25 8.57766 32.25 17C32.25 18.7503 31.9551 20.4316 31.4124 21.9972L32.7853 22.6161C33.4099 20.8605 33.75 18.97 33.75 17C33.75 7.74923 26.2508 0.25 17 0.25C7.74923 0.25 0.25 7.74923 0.25 17C0.25 26.2508 7.74923 33.75 17 33.75C18.8955 33.75 20.7174 33.4352 22.4163 32.8549L21.9691 31.4221C20.4116 31.9587 18.7398 32.25 17 32.25C8.57766 32.25 1.75 25.4223 1.75 17Z" fill="#146EF5"/>
<path d="M26.3199 45.3628L17.6629 17.624C17.4059 16.8006 18.2421 16.0599 19.0284 16.4144L45.6574 28.4189C46.4887 28.7937 46.4257 29.9945 45.5598 30.2802L36.1905 33.3719L44.1208 42.1812C44.4862 42.587 44.4584 43.2108 44.0586 43.5826L41.7821 45.6992C41.3668 46.0853 40.7139 46.0492 40.3437 45.6197L32.5671 36.5969L28.1713 45.5073C27.7719 46.317 26.5889 46.2246 26.3199 45.3628Z" stroke="white" stroke-width="1.5" stroke-linecap="round" stroke-linejoin="round"/>
</svg>
