<svg width="48" height="48" viewBox="0 0 48 48" fill="none" xmlns="http://www.w3.org/2000/svg">
<path d="M43.9878 11.8221L43.2378 11.8228L43.2378 11.8228L43.9878 11.8221ZM4.00934 11.8221L4.00964 12.5721L4.75999 12.5718L4.75934 11.8215L4.00934 11.8221ZM4 11.8221L3.99969 11.0721L3.24933 11.0724L3.25 11.8228L4 11.8221ZM4.02128 35.7989L4.76981 35.8459L4.7713 35.8221L4.77128 35.7983L4.02128 35.7989ZM4.00959 36.1779L4.75959 36.1772L4.00959 36.1779ZM43.988 36.1779L43.238 36.1779L43.238 36.1785L43.988 36.1779ZM43.988 36.1777V35.4277H43.238V36.1777H43.988ZM44 36.1777V36.9277H44.7507L44.75 36.1771L44 36.1777ZM43.9787 12.1561L43.2299 12.1148L43.2287 12.1358L43.2287 12.1568L43.9787 12.1561ZM23.9891 1.75C29.4091 1.75 34.2799 2.94099 37.7695 4.82934C41.2887 6.73374 43.2355 9.24012 43.2378 11.8228L44.7378 11.8215C44.7348 8.42722 42.2022 5.52254 38.4833 3.51011C34.7348 1.48162 29.6089 0.25 23.9891 0.25V1.75ZM4.75934 11.8215C4.75709 9.23924 6.69904 6.7334 10.2146 4.8292C13.7006 2.941 18.5691 1.75 23.9891 1.75V0.25C18.3694 0.25 13.2454 1.48161 9.50017 3.51025C5.78445 5.52288 3.25638 8.4281 3.25934 11.8228L4.75934 11.8215ZM4.00031 12.5721L4.00964 12.5721L4.00903 11.0721L3.99969 11.0721L4.00031 12.5721ZM4.77128 35.7983L4.75 11.8215L3.25 11.8228L3.27128 35.7996L4.77128 35.7983ZM4.75959 36.1772C4.75949 36.0663 4.76291 35.9558 4.76981 35.8459L3.27274 35.752C3.26387 35.8936 3.25946 36.0358 3.25959 36.1785L4.75959 36.1772ZM24.0084 46.25C18.5884 46.25 13.7176 45.059 10.228 43.1707C6.70875 41.2663 4.76187 38.7599 4.75959 36.1772L3.25959 36.1785C3.26259 39.5728 5.79525 42.4775 9.51413 44.4899C13.2627 46.5184 18.3886 47.75 24.0084 47.75V46.25ZM43.238 36.1785C43.2403 38.7608 41.2984 41.2666 37.7829 43.1708C34.2969 45.059 29.4284 46.25 24.0084 46.25V47.75C29.6281 47.75 34.7521 46.5184 38.4973 44.4897C42.213 42.4771 44.741 39.5719 44.738 36.1772L43.238 36.1785ZM43.238 36.1777C43.238 36.1777 43.238 36.1777 43.238 36.1777C43.238 36.1777 43.238 36.1777 43.238 36.1777C43.238 36.1777 43.238 36.1777 43.238 36.1777C43.238 36.1777 43.238 36.1777 43.238 36.1777C43.238 36.1777 43.238 36.1777 43.238 36.1777C43.238 36.1777 43.238 36.1777 43.238 36.1777C43.238 36.1777 43.238 36.1777 43.238 36.1777C43.238 36.1777 43.238 36.1777 43.238 36.1777C43.238 36.1777 43.238 36.1777 43.238 36.1777C43.238 36.1777 43.238 36.1777 43.238 36.1777C43.238 36.1777 43.238 36.1777 43.238 36.1777C43.238 36.1777 43.238 36.1777 43.238 36.1777C43.238 36.1777 43.238 36.1777 43.238 36.1777C43.238 36.1777 43.238 36.1777 43.238 36.1777C43.238 36.1777 43.238 36.1777 43.238 36.1777C43.238 36.1777 43.238 36.1777 43.238 36.1777C43.238 36.1777 43.238 36.1777 43.238 36.1777C43.238 36.1777 43.238 36.1777 43.238 36.1777C43.238 36.1777 43.238 36.1777 43.238 36.1777C43.238 36.1777 43.238 36.1777 43.238 36.1777C43.238 36.1777 43.238 36.1777 43.238 36.1777C43.238 36.1777 43.238 36.1777 43.238 36.1777C43.238 36.1777 43.238 36.1777 43.238 36.1777C43.238 36.1777 43.238 36.1777 43.238 36.1777C43.238 36.1777 43.238 36.1777 43.238 36.1777C43.238 36.1777 43.238 36.1777 43.238 36.1777C43.238 36.1777 43.238 36.1777 43.238 36.1777C43.238 36.1777 43.238 36.1777 43.238 36.1777C43.238 36.1777 43.238 36.1777 43.238 36.1777C43.238 36.1777 43.238 36.1777 43.238 36.1777C43.238 36.1777 43.238 36.1777 43.238 36.1777C43.238 36.1777 43.238 36.1777 43.238 36.1777C43.238 36.1777 43.238 36.1777 43.238 36.1777C43.238 36.1777 43.238 36.1777 43.238 36.1777C43.238 36.1777 43.238 36.1777 43.238 36.1777C43.238 36.1777 43.238 36.1777 43.238 36.1777C43.238 36.1777 43.238 36.1777 43.238 36.1777C43.238 36.1777 43.238 36.1777 43.238 36.1777C43.238 36.1777 43.238 36.1777 43.238 36.1777C43.238 36.1777 43.238 36.1777 43.238 36.1777C43.238 36.1777 43.238 36.1777 43.238 36.1778C43.238 36.1778 43.238 36.1778 43.238 36.1778C43.238 36.1778 43.238 36.1778 43.238 36.1778C43.238 36.1778 43.238 36.1778 43.238 36.1778C43.238 36.1778 43.238 36.1778 43.238 36.1778C43.238 36.1778 43.238 36.1778 43.238 36.1778C43.238 36.1778 43.238 36.1778 43.238 36.1778C43.238 36.1778 43.238 36.1778 43.238 36.1778C43.238 36.1778 43.238 36.1778 43.238 36.1778C43.238 36.1778 43.238 36.1778 43.238 36.1778C43.238 36.1778 43.238 36.1778 43.238 36.1778C43.238 36.1778 43.238 36.1778 43.238 36.1778C43.238 36.1778 43.238 36.1778 43.238 36.1778C43.238 36.1778 43.238 36.1778 43.238 36.1778C43.238 36.1778 43.238 36.1778 43.238 36.1778C43.238 36.1778 43.238 36.1778 43.238 36.1778C43.238 36.1778 43.238 36.1778 43.238 36.1778C43.238 36.1778 43.238 36.1778 43.238 36.1778C43.238 36.1778 43.238 36.1778 43.238 36.1778C43.238 36.1778 43.238 36.1778 43.238 36.1778C43.238 36.1778 43.238 36.1778 43.238 36.1778C43.238 36.1778 43.238 36.1778 43.238 36.1778C43.238 36.1778 43.238 36.1778 43.238 36.1778C43.238 36.1778 43.238 36.1778 43.238 36.1778C43.238 36.1778 43.238 36.1778 43.238 36.1778C43.238 36.1778 43.238 36.1778 43.238 36.1778C43.238 36.1778 43.238 36.1778 43.238 36.1778C43.238 36.1778 43.238 36.1778 43.238 36.1778C43.238 36.1778 43.238 36.1778 43.238 36.1778C43.238 36.1778 43.238 36.1778 43.238 36.1778C43.238 36.1778 43.238 36.1778 43.238 36.1778C43.238 36.1778 43.238 36.1778 43.238 36.1778C43.238 36.1778 43.238 36.1778 43.238 36.1778C43.238 36.1778 43.238 36.1778 43.238 36.1778C43.238 36.1778 43.238 36.1778 43.238 36.1778C43.238 36.1778 43.238 36.1778 43.238 36.1778C43.238 36.1778 43.238 36.1778 43.238 36.1778C43.238 36.1778 43.238 36.1778 43.238 36.1778C43.238 36.1778 43.238 36.1778 43.238 36.1778C43.238 36.1778 43.238 36.1778 43.238 36.1778C43.238 36.1778 43.238 36.1778 43.238 36.1778C43.238 36.1778 43.238 36.1778 43.238 36.1778C43.238 36.1778 43.238 36.1778 43.238 36.1778C43.238 36.1778 43.238 36.1778 43.238 36.1778C43.238 36.1778 43.238 36.1778 43.238 36.1778C43.238 36.1778 43.238 36.1778 43.238 36.1778C43.238 36.1778 43.238 36.1778 43.238 36.1778C43.238 36.1778 43.238 36.1778 43.238 36.1778C43.238 36.1778 43.238 36.1778 43.238 36.1778C43.238 36.1778 43.238 36.1778 43.238 36.1778C43.238 36.1778 43.238 36.1778 43.238 36.1778C43.238 36.1778 43.238 36.1778 43.238 36.1778C43.238 36.1778 43.238 36.1778 43.238 36.1778C43.238 36.1778 43.238 36.1778 43.238 36.1778C43.238 36.1778 43.238 36.1778 43.238 36.1778C43.238 36.1778 43.238 36.1778 43.238 36.1778C43.238 36.1778 43.238 36.1778 43.238 36.1778C43.238 36.1778 43.238 36.1778 43.238 36.1778C43.238 36.1778 43.238 36.1778 43.238 36.1778C43.238 36.1778 43.238 36.1778 43.238 36.1778C43.238 36.1778 43.238 36.1778 43.238 36.1778C43.238 36.1778 43.238 36.1778 43.238 36.1778C43.238 36.1778 43.238 36.1778 43.238 36.1778C43.238 36.1778 43.238 36.1778 43.238 36.1778C43.238 36.1778 43.238 36.1778 43.238 36.1778C43.238 36.1778 43.238 36.1778 43.238 36.1778C43.238 36.1778 43.238 36.1778 43.238 36.1778C43.238 36.1778 43.238 36.1778 43.238 36.1778C43.238 36.1778 43.238 36.1778 43.238 36.1778C43.238 36.1778 43.238 36.1778 43.238 36.1778C43.238 36.1778 43.238 36.1778 43.238 36.1778C43.238 36.1778 43.238 36.1778 43.238 36.1778C43.238 36.1778 43.238 36.1778 43.238 36.1778C43.238 36.1778 43.238 36.1778 43.238 36.1778C43.238 36.1778 43.238 36.1778 43.238 36.1778C43.238 36.1778 43.238 36.1778 43.238 36.1778C43.238 36.1778 43.238 36.1778 43.238 36.1778C43.238 36.1778 43.238 36.1778 43.238 36.1778C43.238 36.1778 43.238 36.1778 43.238 36.1778C43.238 36.1778 43.238 36.1778 43.238 36.1778C43.238 36.1778 43.238 36.1778 43.238 36.1778C43.238 36.1778 43.238 36.1778 43.238 36.1778C43.238 36.1778 43.238 36.1778 43.238 36.1778C43.238 36.1778 43.238 36.1778 43.238 36.1778C43.238 36.1778 43.238 36.1778 43.238 36.1778C43.238 36.1778 43.238 36.1778 43.238 36.1778C43.238 36.1778 43.238 36.1778 43.238 36.1778C43.238 36.1778 43.238 36.1778 43.238 36.1778C43.238 36.1778 43.238 36.1778 43.238 36.1778C43.238 36.1778 43.238 36.1778 43.238 36.1778C43.238 36.1778 43.238 36.1778 43.238 36.1778C43.238 36.1778 43.238 36.1778 43.238 36.1778C43.238 36.1778 43.238 36.1778 43.238 36.1778C43.238 36.1778 43.238 36.1778 43.238 36.1778C43.238 36.1778 43.238 36.1778 43.238 36.1778C43.238 36.1778 43.238 36.1778 43.238 36.1778C43.238 36.1778 43.238 36.1778 43.238 36.1778C43.238 36.1778 43.238 36.1778 43.238 36.1778C43.238 36.1778 43.238 36.1778 43.238 36.1778C43.238 36.1778 43.238 36.1778 43.238 36.1778C43.238 36.1778 43.238 36.1778 43.238 36.1778C43.238 36.1778 43.238 36.1778 43.238 36.1778C43.238 36.1778 43.238 36.1778 43.238 36.1778C43.238 36.1778 43.238 36.1778 43.238 36.1778C43.238 36.1778 43.238 36.1778 43.238 36.1778C43.238 36.1778 43.238 36.1778 43.238 36.1778C43.238 36.1778 43.238 36.1778 43.238 36.1778C43.238 36.1778 43.238 36.1778 43.238 36.1778C43.238 36.1778 43.238 36.1778 43.238 36.1778C43.238 36.1778 43.238 36.1778 43.238 36.1778C43.238 36.1778 43.238 36.1778 43.238 36.1778C43.238 36.1778 43.238 36.1778 43.238 36.1778C43.238 36.1778 43.238 36.1778 43.238 36.1778C43.238 36.1778 43.238 36.1778 43.238 36.1778C43.238 36.1778 43.238 36.1778 43.238 36.1778C43.238 36.1778 43.238 36.1778 43.238 36.1778C43.238 36.1778 43.238 36.1778 43.238 36.1778C43.238 36.1778 43.238 36.1778 43.238 36.1778C43.238 36.1778 43.238 36.1778 43.238 36.1778C43.238 36.1778 43.238 36.1778 43.238 36.1778C43.238 36.1778 43.238 36.1778 43.238 36.1778C43.238 36.1778 43.238 36.1778 43.238 36.1778C43.238 36.1778 43.238 36.1778 43.238 36.1778C43.238 36.1778 43.238 36.1778 43.238 36.1778C43.238 36.1778 43.238 36.1778 43.238 36.1778C43.238 36.1778 43.238 36.1778 43.238 36.1778C43.238 36.1778 43.238 36.1778 43.238 36.1778C43.238 36.1778 43.238 36.1778 43.238 36.1778C43.238 36.1778 43.238 36.1778 43.238 36.1778C43.238 36.1778 43.238 36.1778 43.238 36.1778C43.238 36.1778 43.238 36.1778 43.238 36.1778C43.238 36.1778 43.238 36.1778 43.238 36.1778C43.238 36.1778 43.238 36.1778 43.238 36.1778C43.238 36.1778 43.238 36.1778 43.238 36.1778C43.238 36.1778 43.238 36.1778 43.238 36.1778C43.238 36.1778 43.238 36.1778 43.238 36.1778C43.238 36.1778 43.238 36.1778 43.238 36.1778C43.238 36.1778 43.238 36.1778 43.238 36.1778C43.238 36.1778 43.238 36.1778 43.238 36.1778C43.238 36.1778 43.238 36.1778 43.238 36.1778C43.238 36.1778 43.238 36.1778 43.238 36.1778C43.238 36.1778 43.238 36.1778 43.238 36.1778C43.238 36.1778 43.238 36.1778 43.238 36.1778C43.238 36.1778 43.238 36.1778 43.238 36.1778C43.238 36.1778 43.238 36.1778 43.238 36.1778C43.238 36.1778 43.238 36.1778 43.238 36.1778C43.238 36.1778 43.238 36.1778 43.238 36.1778C43.238 36.1778 43.238 36.1778 43.238 36.1778C43.238 36.1778 43.238 36.1778 43.238 36.1778C43.238 36.1778 43.238 36.1778 43.238 36.1778C43.238 36.1778 43.238 36.1778 43.238 36.1778C43.238 36.1778 43.238 36.1778 43.238 36.1778C43.238 36.1778 43.238 36.1778 43.238 36.1778C43.238 36.1778 43.238 36.1778 43.238 36.1778C43.238 36.1778 43.238 36.1778 43.238 36.1778C43.238 36.1778 43.238 36.1778 43.238 36.1778C43.238 36.1778 43.238 36.1778 43.238 36.1778C43.238 36.1778 43.238 36.1778 43.238 36.1778C43.238 36.1778 43.238 36.1778 43.238 36.1778C43.238 36.1778 43.238 36.1778 43.238 36.1778C43.238 36.1778 43.238 36.1778 43.238 36.1778C43.238 36.1778 43.238 36.1778 43.238 36.1778C43.238 36.1778 43.238 36.1778 43.238 36.1778C43.238 36.1778 43.238 36.1778 43.238 36.1778C43.238 36.1778 43.238 36.1778 43.238 36.1778C43.238 36.1778 43.238 36.1778 43.238 36.1778C43.238 36.1778 43.238 36.1778 43.238 36.1778C43.238 36.1778 43.238 36.1778 43.238 36.1778C43.238 36.1778 43.238 36.1778 43.238 36.1778C43.238 36.1778 43.238 36.1778 43.238 36.1778C43.238 36.1778 43.238 36.1778 43.238 36.1778C43.238 36.1778 43.238 36.1778 43.238 36.1778C43.238 36.1778 43.238 36.1778 43.238 36.1778C43.238 36.1778 43.238 36.1778 43.238 36.1778C43.238 36.1778 43.238 36.1778 43.238 36.1778C43.238 36.1778 43.238 36.1778 43.238 36.1778C43.238 36.1778 43.238 36.1778 43.238 36.1778C43.238 36.1778 43.238 36.1778 43.238 36.1778C43.238 36.1778 43.238 36.1778 43.238 36.1778C43.238 36.1778 43.238 36.1778 43.238 36.1778C43.238 36.1778 43.238 36.1778 43.238 36.1778C43.238 36.1778 43.238 36.1778 43.238 36.1778C43.238 36.1778 43.238 36.1778 43.238 36.1778C43.238 36.1778 43.238 36.1778 43.238 36.1778C43.238 36.1778 43.238 36.1778 43.238 36.1778C43.238 36.1778 43.238 36.1778 43.238 36.1778C43.238 36.1778 43.238 36.1778 43.238 36.1778C43.238 36.1778 43.238 36.1778 43.238 36.1778C43.238 36.1778 43.238 36.1778 43.238 36.1778C43.238 36.1778 43.238 36.1778 43.238 36.1778C43.238 36.1778 43.238 36.1778 43.238 36.1778C43.238 36.1778 43.238 36.1778 43.238 36.1778C43.238 36.1778 43.238 36.1778 43.238 36.1778C43.238 36.1778 43.238 36.1778 43.238 36.1778C43.238 36.1778 43.238 36.1778 43.238 36.1778C43.238 36.1778 43.238 36.1778 43.238 36.1778C43.238 36.1778 43.238 36.1778 43.238 36.1778C43.238 36.1778 43.238 36.1778 43.238 36.1778C43.238 36.1778 43.238 36.1778 43.238 36.1778C43.238 36.1778 43.238 36.1778 43.238 36.1778C43.238 36.1778 43.238 36.1778 43.238 36.1778C43.238 36.1778 43.238 36.1778 43.238 36.1778C43.238 36.1778 43.238 36.1778 43.238 36.1778C43.238 36.1778 43.238 36.1778 43.238 36.1778C43.238 36.1778 43.238 36.1778 43.238 36.1778C43.238 36.1778 43.238 36.1778 43.238 36.1778C43.238 36.1778 43.238 36.1778 43.238 36.1778C43.238 36.1778 43.238 36.1778 43.238 36.1778C43.238 36.1778 43.238 36.1778 43.238 36.1778C43.238 36.1778 43.238 36.1778 43.238 36.1778C43.238 36.1778 43.238 36.1778 43.238 36.1778C43.238 36.1778 43.238 36.1778 43.238 36.1778C43.238 36.1778 43.238 36.1778 43.238 36.1778C43.238 36.1778 43.238 36.1778 43.238 36.1778C43.238 36.1778 43.238 36.1778 43.238 36.1778C43.238 36.1778 43.238 36.1778 43.238 36.1778C43.238 36.1778 43.238 36.1778 43.238 36.1778C43.238 36.1778 43.238 36.1778 43.238 36.1778C43.238 36.1778 43.238 36.1778 43.238 36.1778C43.238 36.1778 43.238 36.1778 43.238 36.1778C43.238 36.1778 43.238 36.1778 43.238 36.1778C43.238 36.1778 43.238 36.1778 43.238 36.1778C43.238 36.1778 43.238 36.1778 43.238 36.1778C43.238 36.1778 43.238 36.1778 43.238 36.1778C43.238 36.1778 43.238 36.1778 43.238 36.1778C43.238 36.1778 43.238 36.1778 43.238 36.1778C43.238 36.1778 43.238 36.1778 43.238 36.1778C43.238 36.1778 43.238 36.1778 43.238 36.1778C43.238 36.1778 43.238 36.1778 43.238 36.1778C43.238 36.1778 43.238 36.1778 43.238 36.1778C43.238 36.1778 43.238 36.1778 43.238 36.1778C43.238 36.1778 43.238 36.1778 43.238 36.1778C43.238 36.1778 43.238 36.1778 43.238 36.1778C43.238 36.1778 43.238 36.1778 43.238 36.1778C43.238 36.1778 43.238 36.1778 43.238 36.1778C43.238 36.1778 43.238 36.1778 43.238 36.1778C43.238 36.1778 43.238 36.1778 43.238 36.1778C43.238 36.1778 43.238 36.1778 43.238 36.1778C43.238 36.1778 43.238 36.1778 43.238 36.1778C43.238 36.1778 43.238 36.1778 43.238 36.1778C43.238 36.1778 43.238 36.1778 43.238 36.1778C43.238 36.1778 43.238 36.1778 43.238 36.1778C43.238 36.1778 43.238 36.1778 43.238 36.1778C43.238 36.1778 43.238 36.1778 43.238 36.1778C43.238 36.1778 43.238 36.1778 43.238 36.1778C43.238 36.1778 43.238 36.1778 43.238 36.1778C43.238 36.1778 43.238 36.1778 43.238 36.1778C43.238 36.1778 43.238 36.1778 43.238 36.1778C43.238 36.1778 43.238 36.1778 43.238 36.1778C43.238 36.1778 43.238 36.1778 43.238 36.1778C43.238 36.1778 43.238 36.1778 43.238 36.1778C43.238 36.1778 43.238 36.1778 43.238 36.1778C43.238 36.1778 43.238 36.1778 43.238 36.1778C43.238 36.1778 43.238 36.1778 43.238 36.1778C43.238 36.1778 43.238 36.1778 43.238 36.1778C43.238 36.1778 43.238 36.1778 43.238 36.1778C43.238 36.1778 43.238 36.1778 43.238 36.1778C43.238 36.1778 43.238 36.1778 43.238 36.1778C43.238 36.1778 43.238 36.1778 43.238 36.1778C43.238 36.1778 43.238 36.1778 43.238 36.1778C43.238 36.1778 43.238 36.1778 43.238 36.1778C43.238 36.1778 43.238 36.1778 43.238 36.1778C43.238 36.1778 43.238 36.1778 43.238 36.1778C43.238 36.1778 43.238 36.1778 43.238 36.1778C43.238 36.1778 43.238 36.1778 43.238 36.1778C43.238 36.1778 43.238 36.1778 43.238 36.1778C43.238 36.1778 43.238 36.1778 43.238 36.1778C43.238 36.1778 43.238 36.1778 43.238 36.1778C43.238 36.1778 43.238 36.1778 43.238 36.1778C43.238 36.1778 43.238 36.1778 43.238 36.1778C43.238 36.1778 43.238 36.1778 43.238 36.1778C43.238 36.1778 43.238 36.1778 43.238 36.1778C43.238 36.1778 43.238 36.1778 43.238 36.1778C43.238 36.1778 43.238 36.1778 43.238 36.1778C43.238 36.1778 43.238 36.1778 43.238 36.1778C43.238 36.1778 43.238 36.1778 43.238 36.1778C43.238 36.1778 43.238 36.1778 43.238 36.1778C43.238 36.1778 43.238 36.1778 43.238 36.1778C43.238 36.1778 43.238 36.1778 43.238 36.1778C43.238 36.1778 43.238 36.1778 43.238 36.1778C43.238 36.1778 43.238 36.1778 43.238 36.1778C43.238 36.1778 43.238 36.1778 43.238 36.1778C43.238 36.1778 43.238 36.1778 43.238 36.1778C43.238 36.1778 43.238 36.1778 43.238 36.1778C43.238 36.1778 43.238 36.1778 43.238 36.1778C43.238 36.1778 43.238 36.1778 43.238 36.1778C43.238 36.1778 43.238 36.1778 43.238 36.1778C43.238 36.1778 43.238 36.1778 43.238 36.1778C43.238 36.1778 43.238 36.1778 43.238 36.1778C43.238 36.1778 43.238 36.1778 43.238 36.1778C43.238 36.1778 43.238 36.1778 43.238 36.1778C43.238 36.1778 43.238 36.1778 43.238 36.1778C43.238 36.1778 43.238 36.1778 43.238 36.1778C43.238 36.1778 43.238 36.1778 43.238 36.1778C43.238 36.1778 43.238 36.1778 43.238 36.1778C43.238 36.1778 43.238 36.1778 43.238 36.1778C43.238 36.1778 43.238 36.1778 43.238 36.1778C43.238 36.1778 43.238 36.1778 43.238 36.1778C43.238 36.1778 43.238 36.1778 43.238 36.1778C43.238 36.1778 43.238 36.1778 43.238 36.1778C43.238 36.1778 43.238 36.1778 43.238 36.1778C43.238 36.1778 43.238 36.1778 43.238 36.1778C43.238 36.1778 43.238 36.1778 43.238 36.1778C43.238 36.1778 43.238 36.1778 43.238 36.1778C43.238 36.1778 43.238 36.1778 43.238 36.1778C43.238 36.1778 43.238 36.1778 43.238 36.1778C43.238 36.1778 43.238 36.1778 43.238 36.1778C43.238 36.1778 43.238 36.1778 43.238 36.1778C43.238 36.1778 43.238 36.1778 43.238 36.1778C43.238 36.1778 43.238 36.1778 43.238 36.1778C43.238 36.1778 43.238 36.1778 43.238 36.1778C43.238 36.1778 43.238 36.1778 43.238 36.1778C43.238 36.1778 43.238 36.1778 43.238 36.1778C43.238 36.1778 43.238 36.1778 43.238 36.1778C43.238 36.1778 43.238 36.1778 43.238 36.1778C43.238 36.1778 43.238 36.1778 43.238 36.1778C43.238 36.1778 43.238 36.1778 43.238 36.1778C43.238 36.1778 43.238 36.1778 43.238 36.1778C43.238 36.1778 43.238 36.1778 43.238 36.1778C43.238 36.1778 43.238 36.1778 43.238 36.1778C43.238 36.1778 43.238 36.1778 43.238 36.1778C43.238 36.1778 43.238 36.1778 43.238 36.1778C43.238 36.1778 43.238 36.1778 43.238 36.1778C43.238 36.1778 43.238 36.1778 43.238 36.1778C43.238 36.1778 43.238 36.1778 43.238 36.1778C43.238 36.1778 43.238 36.1778 43.238 36.1778C43.238 36.1778 43.238 36.1778 43.238 36.1778C43.238 36.1778 43.238 36.1778 43.238 36.1778C43.238 36.1778 43.238 36.1778 43.238 36.1778C43.238 36.1778 43.238 36.1778 43.238 36.1778C43.238 36.1778 43.238 36.1778 43.238 36.1778C43.238 36.1778 43.238 36.1778 43.238 36.1778C43.238 36.1778 43.238 36.1778 43.238 36.1778C43.238 36.1778 43.238 36.1778 43.238 36.1778C43.238 36.1778 43.238 36.1778 43.238 36.1778C43.238 36.1778 43.238 36.1778 43.238 36.1778C43.238 36.1778 43.238 36.1778 43.238 36.1778C43.238 36.1778 43.238 36.1778 43.238 36.1778C43.238 36.1778 43.238 36.1778 43.238 36.1778C43.238 36.1778 43.238 36.1778 43.238 36.1778C43.238 36.1778 43.238 36.1778 43.238 36.1778C43.238 36.1778 43.238 36.1778 43.238 36.1778C43.238 36.1778 43.238 36.1778 43.238 36.1778C43.238 36.1778 43.238 36.1778 43.238 36.1778C43.238 36.1778 43.238 36.1778 43.238 36.1778C43.238 36.1778 43.238 36.1778 43.238 36.1778C43.238 36.1778 43.238 36.1778 43.238 36.1778C43.238 36.1778 43.238 36.1778 43.238 36.1778C43.238 36.1778 43.238 36.1778 43.238 36.1778C43.238 36.1778 43.238 36.1778 43.238 36.1778C43.238 36.1778 43.238 36.1778 43.238 36.1778C43.238 36.1778 43.238 36.1778 43.238 36.1778C43.238 36.1778 43.238 36.1778 43.238 36.1778C43.238 36.1778 43.238 36.1778 43.238 36.1778C43.238 36.1778 43.238 36.1778 43.238 36.1778C43.238 36.1778 43.238 36.1778 43.238 36.1778C43.238 36.1779 43.238 36.1779 43.238 36.1779C43.238 36.1779 43.238 36.1779 43.238 36.1779C43.238 36.1779 43.238 36.1779 43.238 36.1779C43.238 36.1779 43.238 36.1779 43.238 36.1779C43.238 36.1779 43.238 36.1779 43.238 36.1779C43.238 36.1779 43.238 36.1779 43.238 36.1779C43.238 36.1779 43.238 36.1779 43.238 36.1779C43.238 36.1779 43.238 36.1779 43.238 36.1779C43.238 36.1779 43.238 36.1779 43.238 36.1779C43.238 36.1779 43.238 36.1779 43.238 36.1779C43.238 36.1779 43.238 36.1779 43.238 36.1779C43.238 36.1779 43.238 36.1779 43.238 36.1779C43.238 36.1779 43.238 36.1779 43.238 36.1779C43.238 36.1779 43.238 36.1779 43.238 36.1779C43.238 36.1779 43.238 36.1779 43.238 36.1779C43.238 36.1779 43.238 36.1779 43.238 36.1779C43.238 36.1779 43.238 36.1779 43.238 36.1779C43.238 36.1779 43.238 36.1779 43.238 36.1779C43.238 36.1779 43.238 36.1779 43.238 36.1779C43.238 36.1779 43.238 36.1779 43.238 36.1779C43.238 36.1779 43.238 36.1779 43.238 36.1779C43.238 36.1779 43.238 36.1779 43.238 36.1779C43.238 36.1779 43.238 36.1779 43.238 36.1779C43.238 36.1779 43.238 36.1779 43.238 36.1779C43.238 36.1779 43.238 36.1779 43.238 36.1779C43.238 36.1779 43.238 36.1779 43.238 36.1779C43.238 36.1779 43.238 36.1779 43.238 36.1779C43.238 36.1779 43.238 36.1779 43.238 36.1779C43.238 36.1779 43.238 36.1779 43.238 36.1779C43.238 36.1779 43.238 36.1779 43.238 36.1779C43.238 36.1779 43.238 36.1779 43.238 36.1779C43.238 36.1779 43.238 36.1779 43.238 36.1779C43.238 36.1779 43.238 36.1779 43.238 36.1779C43.238 36.1779 43.238 36.1779 43.238 36.1779C43.238 36.1779 43.238 36.1779 43.238 36.1779C43.238 36.1779 43.238 36.1779 43.238 36.1779C43.238 36.1779 43.238 36.1779 43.238 36.1779C43.238 36.1779 43.238 36.1779 43.238 36.1779C43.238 36.1779 43.238 36.1779 43.238 36.1779C43.238 36.1779 43.238 36.1779 43.238 36.1779C43.238 36.1779 43.238 36.1779 43.238 36.1779C43.238 36.1779 43.238 36.1779 43.238 36.1779C43.238 36.1779 43.238 36.1779 43.238 36.1779C43.238 36.1779 43.238 36.1779 43.238 36.1779C43.238 36.1779 43.238 36.1779 43.238 36.1779C43.238 36.1779 43.238 36.1779 43.238 36.1779C43.238 36.1779 43.238 36.1779 43.238 36.1779C43.238 36.1779 43.238 36.1779 43.238 36.1779C43.238 36.1779 43.238 36.1779 43.238 36.1779C43.238 36.1779 43.238 36.1779 43.238 36.1779C43.238 36.1779 43.238 36.1779 43.238 36.1779C43.238 36.1779 43.238 36.1779 43.238 36.1779C43.238 36.1779 43.238 36.1779 43.238 36.1779C43.238 36.1779 43.238 36.1779 43.238 36.1779C43.238 36.1779 43.238 36.1779 43.238 36.1779C43.238 36.1779 43.238 36.1779 43.238 36.1779C43.238 36.1779 43.238 36.1779 43.238 36.1779C43.238 36.1779 43.238 36.1779 43.238 36.1779C43.238 36.1779 43.238 36.1779 43.238 36.1779C43.238 36.1779 43.238 36.1779 43.238 36.1779C43.238 36.1779 43.238 36.1779 43.238 36.1779C43.238 36.1779 43.238 36.1779 43.238 36.1779C43.238 36.1779 43.238 36.1779 43.238 36.1779C43.238 36.1779 43.238 36.1779 43.238 36.1779C43.238 36.1779 43.238 36.1779 43.238 36.1779C43.238 36.1779 43.238 36.1779 43.238 36.1779C43.238 36.1779 43.238 36.1779 43.238 36.1779C43.238 36.1779 43.238 36.1779 43.238 36.1779C43.238 36.1779 43.238 36.1779 43.238 36.1779C43.238 36.1779 43.238 36.1779 43.238 36.1779C43.238 36.1779 43.238 36.1779 43.238 36.1779C43.238 36.1779 43.238 36.1779 43.238 36.1779C43.238 36.1779 43.238 36.1779 43.238 36.1779C43.238 36.1779 43.238 36.1779 43.238 36.1779C43.238 36.1779 43.238 36.1779 43.238 36.1779C43.238 36.1779 43.238 36.1779 43.238 36.1779C43.238 36.1779 43.238 36.1779 43.238 36.1779C43.238 36.1779 43.238 36.1779 43.238 36.1779C43.238 36.1779 43.238 36.1779 43.238 36.1779C43.238 36.1779 43.238 36.1779 43.238 36.1779C43.238 36.1779 43.238 36.1779 43.238 36.1779C43.238 36.1779 43.238 36.1779 43.238 36.1779C43.238 36.1779 43.238 36.1779 43.238 36.1779C43.238 36.1779 43.238 36.1779 43.238 36.1779C43.238 36.1779 43.238 36.1779 43.238 36.1779C43.238 36.1779 43.238 36.1779 43.238 36.1779C43.238 36.1779 43.238 36.1779 43.238 36.1779C43.238 36.1779 43.238 36.1779 43.238 36.1779C43.238 36.1779 43.238 36.1779 43.238 36.1779C43.238 36.1779 43.238 36.1779 43.238 36.1779C43.238 36.1779 43.238 36.1779 43.238 36.1779C43.238 36.1779 43.238 36.1779 43.238 36.1779C43.238 36.1779 43.238 36.1779 43.238 36.1779C43.238 36.1779 43.238 36.1779 43.238 36.1779C43.238 36.1779 43.238 36.1779 43.238 36.1779C43.238 36.1779 43.238 36.1779 43.238 36.1779C43.238 36.1779 43.238 36.1779 43.238 36.1779C43.238 36.1779 43.238 36.1779 43.238 36.1779C43.238 36.1779 43.238 36.1779 43.238 36.1779C43.238 36.1779 43.238 36.1779 43.238 36.1779C43.238 36.1779 43.238 36.1779 43.238 36.1779C43.238 36.1779 43.238 36.1779 43.238 36.1779C43.238 36.1779 43.238 36.1779 43.238 36.1779C43.238 36.1779 43.238 36.1779 43.238 36.1779C43.238 36.1779 43.238 36.1779 43.238 36.1779C43.238 36.1779 43.238 36.1779 43.238 36.1779C43.238 36.1779 43.238 36.1779 43.238 36.1779C43.238 36.1779 43.238 36.1779 43.238 36.1779C43.238 36.1779 43.238 36.1779 43.238 36.1779C43.238 36.1779 43.238 36.1779 43.238 36.1779C43.238 36.1779 43.238 36.1779 43.238 36.1779C43.238 36.1779 43.238 36.1779 43.238 36.1779C43.238 36.1779 43.238 36.1779 43.238 36.1779C43.238 36.1779 43.238 36.1779 43.238 36.1779C43.238 36.1779 43.238 36.1779 43.238 36.1779C43.238 36.1779 43.238 36.1779 43.238 36.1779H44.738C44.738 36.1779 44.738 36.1779 44.738 36.1779C44.738 36.1779 44.738 36.1779 44.738 36.1779C44.738 36.1779 44.738 36.1779 44.738 36.1779C44.738 36.1779 44.738 36.1779 44.738 36.1779C44.738 36.1779 44.738 36.1779 44.738 36.1779C44.738 36.1779 44.738 36.1779 44.738 36.1779C44.738 36.1779 44.738 36.1779 44.738 36.1779C44.738 36.1779 44.738 36.1779 44.738 36.1779C44.738 36.1779 44.738 36.1779 44.738 36.1779C44.738 36.1779 44.738 36.1779 44.738 36.1779C44.738 36.1779 44.738 36.1779 44.738 36.1779C44.738 36.1779 44.738 36.1779 44.738 36.1779C44.738 36.1779 44.738 36.1779 44.738 36.1779C44.738 36.1779 44.738 36.1779 44.738 36.1779C44.738 36.1779 44.738 36.1779 44.738 36.1779C44.738 36.1779 44.738 36.1779 44.738 36.1779C44.738 36.1779 44.738 36.1779 44.738 36.1779C44.738 36.1779 44.738 36.1779 44.738 36.1779C44.738 36.1779 44.738 36.1779 44.738 36.1779C44.738 36.1779 44.738 36.1779 44.738 36.1779C44.738 36.1779 44.738 36.1779 44.738 36.1779C44.738 36.1779 44.738 36.1779 44.738 36.1779C44.738 36.1779 44.738 36.1779 44.738 36.1779C44.738 36.1779 44.738 36.1779 44.738 36.1779C44.738 36.1779 44.738 36.1779 44.738 36.1779C44.738 36.1779 44.738 36.1779 44.738 36.1779C44.738 36.1779 44.738 36.1779 44.738 36.1779C44.738 36.1779 44.738 36.1779 44.738 36.1779C44.738 36.1779 44.738 36.1779 44.738 36.1779C44.738 36.1779 44.738 36.1779 44.738 36.1779C44.738 36.1779 44.738 36.1779 44.738 36.1779C44.738 36.1779 44.738 36.1779 44.738 36.1779C44.738 36.1779 44.738 36.1779 44.738 36.1779C44.738 36.1779 44.738 36.1779 44.738 36.1779C44.738 36.1779 44.738 36.1779 44.738 36.1779C44.738 36.1779 44.738 36.1779 44.738 36.1779C44.738 36.1779 44.738 36.1779 44.738 36.1779C44.738 36.1779 44.738 36.1779 44.738 36.1779C44.738 36.1779 44.738 36.1779 44.738 36.1779C44.738 36.1779 44.738 36.1779 44.738 36.1779C44.738 36.1779 44.738 36.1779 44.738 36.1779C44.738 36.1779 44.738 36.1779 44.738 36.1779C44.738 36.1779 44.738 36.1779 44.738 36.1779C44.738 36.1779 44.738 36.1779 44.738 36.1779C44.738 36.1779 44.738 36.1779 44.738 36.1779C44.738 36.1779 44.738 36.1779 44.738 36.1779C44.738 36.1779 44.738 36.1779 44.738 36.1779C44.738 36.1779 44.738 36.1779 44.738 36.1779C44.738 36.1779 44.738 36.1779 44.738 36.1779C44.738 36.1779 44.738 36.1779 44.738 36.1779C44.738 36.1779 44.738 36.1779 44.738 36.1779C44.738 36.1779 44.738 36.1779 44.738 36.1779C44.738 36.1779 44.738 36.1779 44.738 36.1779C44.738 36.1779 44.738 36.1779 44.738 36.1779C44.738 36.1779 44.738 36.1779 44.738 36.1779C44.738 36.1779 44.738 36.1779 44.738 36.1779C44.738 36.1779 44.738 36.1779 44.738 36.1779C44.738 36.1779 44.738 36.1779 44.738 36.1779C44.738 36.1779 44.738 36.1779 44.738 36.1779C44.738 36.1779 44.738 36.1779 44.738 36.1779C44.738 36.1779 44.738 36.1779 44.738 36.1779C44.738 36.1779 44.738 36.1779 44.738 36.1779C44.738 36.1779 44.738 36.1779 44.738 36.1779C44.738 36.1779 44.738 36.1779 44.738 36.1779C44.738 36.1779 44.738 36.1779 44.738 36.1779C44.738 36.1779 44.738 36.1779 44.738 36.1779C44.738 36.1779 44.738 36.1779 44.738 36.1779C44.738 36.1779 44.738 36.1779 44.738 36.1779C44.738 36.1779 44.738 36.1779 44.738 36.1779C44.738 36.1779 44.738 36.1779 44.738 36.1779C44.738 36.1779 44.738 36.1779 44.738 36.1779C44.738 36.1779 44.738 36.1779 44.738 36.1779C44.738 36.1779 44.738 36.1779 44.738 36.1779C44.738 36.1779 44.738 36.1779 44.738 36.1779C44.738 36.1779 44.738 36.1779 44.738 36.1779C44.738 36.1779 44.738 36.1779 44.738 36.1779C44.738 36.1779 44.738 36.1779 44.738 36.1779C44.738 36.1779 44.738 36.1779 44.738 36.1779C44.738 36.1779 44.738 36.1779 44.738 36.1779C44.738 36.1779 44.738 36.1779 44.738 36.1779C44.738 36.1779 44.738 36.1779 44.738 36.1779C44.738 36.1779 44.738 36.1779 44.738 36.1779C44.738 36.1779 44.738 36.1779 44.738 36.1779C44.738 36.1779 44.738 36.1779 44.738 36.1779C44.738 36.1779 44.738 36.1779 44.738 36.1779C44.738 36.1779 44.738 36.1779 44.738 36.1779C44.738 36.1779 44.738 36.1779 44.738 36.1779C44.738 36.1779 44.738 36.1779 44.738 36.1779C44.738 36.1779 44.738 36.1779 44.738 36.1779C44.738 36.1779 44.738 36.1779 44.738 36.1779C44.738 36.1779 44.738 36.1779 44.738 36.1779C44.738 36.1779 44.738 36.1779 44.738 36.1779C44.738 36.1779 44.738 36.1779 44.738 36.1779C44.738 36.1779 44.738 36.1779 44.738 36.1779C44.738 36.1779 44.738 36.1779 44.738 36.1779C44.738 36.1779 44.738 36.1779 44.738 36.1779C44.738 36.1779 44.738 36.1779 44.738 36.1779C44.738 36.1779 44.738 36.1779 44.738 36.1779C44.738 36.1779 44.738 36.1779 44.738 36.1779C44.738 36.1779 44.738 36.1779 44.738 36.1779C44.738 36.1779 44.738 36.1779 44.738 36.1779C44.738 36.1779 44.738 36.1779 44.738 36.1779C44.738 36.1779 44.738 36.1779 44.738 36.1779C44.738 36.1779 44.738 36.1779 44.738 36.1779C44.738 36.1779 44.738 36.1779 44.738 36.1779C44.738 36.1779 44.738 36.1779 44.738 36.1779C44.738 36.1779 44.738 36.1779 44.738 36.1779C44.738 36.1779 44.738 36.1779 44.738 36.1779C44.738 36.1779 44.738 36.1779 44.738 36.1779C44.738 36.1779 44.738 36.1779 44.738 36.1779C44.738 36.1779 44.738 36.1779 44.738 36.1779C44.738 36.1779 44.738 36.1779 44.738 36.1779C44.738 36.1779 44.738 36.1779 44.738 36.1779C44.738 36.1779 44.738 36.1779 44.738 36.1779C44.738 36.1779 44.738 36.1779 44.738 36.1779C44.738 36.1779 44.738 36.1779 44.738 36.1778C44.738 36.1778 44.738 36.1778 44.738 36.1778C44.738 36.1778 44.738 36.1778 44.738 36.1778C44.738 36.1778 44.738 36.1778 44.738 36.1778C44.738 36.1778 44.738 36.1778 44.738 36.1778C44.738 36.1778 44.738 36.1778 44.738 36.1778C44.738 36.1778 44.738 36.1778 44.738 36.1778C44.738 36.1778 44.738 36.1778 44.738 36.1778C44.738 36.1778 44.738 36.1778 44.738 36.1778C44.738 36.1778 44.738 36.1778 44.738 36.1778C44.738 36.1778 44.738 36.1778 44.738 36.1778C44.738 36.1778 44.738 36.1778 44.738 36.1778C44.738 36.1778 44.738 36.1778 44.738 36.1778C44.738 36.1778 44.738 36.1778 44.738 36.1778C44.738 36.1778 44.738 36.1778 44.738 36.1778C44.738 36.1778 44.738 36.1778 44.738 36.1778C44.738 36.1778 44.738 36.1778 44.738 36.1778C44.738 36.1778 44.738 36.1778 44.738 36.1778C44.738 36.1778 44.738 36.1778 44.738 36.1778C44.738 36.1778 44.738 36.1778 44.738 36.1778C44.738 36.1778 44.738 36.1778 44.738 36.1778C44.738 36.1778 44.738 36.1778 44.738 36.1778C44.738 36.1778 44.738 36.1778 44.738 36.1778C44.738 36.1778 44.738 36.1778 44.738 36.1778C44.738 36.1778 44.738 36.1778 44.738 36.1778C44.738 36.1778 44.738 36.1778 44.738 36.1778C44.738 36.1778 44.738 36.1778 44.738 36.1778C44.738 36.1778 44.738 36.1778 44.738 36.1778C44.738 36.1778 44.738 36.1778 44.738 36.1778C44.738 36.1778 44.738 36.1778 44.738 36.1778C44.738 36.1778 44.738 36.1778 44.738 36.1778C44.738 36.1778 44.738 36.1778 44.738 36.1778C44.738 36.1778 44.738 36.1778 44.738 36.1778C44.738 36.1778 44.738 36.1778 44.738 36.1778C44.738 36.1778 44.738 36.1778 44.738 36.1778C44.738 36.1778 44.738 36.1778 44.738 36.1778C44.738 36.1778 44.738 36.1778 44.738 36.1778C44.738 36.1778 44.738 36.1778 44.738 36.1778C44.738 36.1778 44.738 36.1778 44.738 36.1778C44.738 36.1778 44.738 36.1778 44.738 36.1778C44.738 36.1778 44.738 36.1778 44.738 36.1778C44.738 36.1778 44.738 36.1778 44.738 36.1778C44.738 36.1778 44.738 36.1778 44.738 36.1778C44.738 36.1778 44.738 36.1778 44.738 36.1778C44.738 36.1778 44.738 36.1778 44.738 36.1778C44.738 36.1778 44.738 36.1778 44.738 36.1778C44.738 36.1778 44.738 36.1778 44.738 36.1778C44.738 36.1778 44.738 36.1778 44.738 36.1778C44.738 36.1778 44.738 36.1778 44.738 36.1778C44.738 36.1778 44.738 36.1778 44.738 36.1778C44.738 36.1778 44.738 36.1778 44.738 36.1778C44.738 36.1778 44.738 36.1778 44.738 36.1778C44.738 36.1778 44.738 36.1778 44.738 36.1778C44.738 36.1778 44.738 36.1778 44.738 36.1778C44.738 36.1778 44.738 36.1778 44.738 36.1778C44.738 36.1778 44.738 36.1778 44.738 36.1778C44.738 36.1778 44.738 36.1778 44.738 36.1778C44.738 36.1778 44.738 36.1778 44.738 36.1778C44.738 36.1778 44.738 36.1778 44.738 36.1778C44.738 36.1778 44.738 36.1778 44.738 36.1778C44.738 36.1778 44.738 36.1778 44.738 36.1778C44.738 36.1778 44.738 36.1778 44.738 36.1778C44.738 36.1778 44.738 36.1778 44.738 36.1778C44.738 36.1778 44.738 36.1778 44.738 36.1778C44.738 36.1778 44.738 36.1778 44.738 36.1778C44.738 36.1778 44.738 36.1778 44.738 36.1778C44.738 36.1778 44.738 36.1778 44.738 36.1778C44.738 36.1778 44.738 36.1778 44.738 36.1778C44.738 36.1778 44.738 36.1778 44.738 36.1778C44.738 36.1778 44.738 36.1778 44.738 36.1778C44.738 36.1778 44.738 36.1778 44.738 36.1778C44.738 36.1778 44.738 36.1778 44.738 36.1778C44.738 36.1778 44.738 36.1778 44.738 36.1778C44.738 36.1778 44.738 36.1778 44.738 36.1778C44.738 36.1778 44.738 36.1778 44.738 36.1778C44.738 36.1778 44.738 36.1778 44.738 36.1778C44.738 36.1778 44.738 36.1778 44.738 36.1778C44.738 36.1778 44.738 36.1778 44.738 36.1778C44.738 36.1778 44.738 36.1778 44.738 36.1778C44.738 36.1778 44.738 36.1778 44.738 36.1778C44.738 36.1778 44.738 36.1778 44.738 36.1778C44.738 36.1778 44.738 36.1778 44.738 36.1778C44.738 36.1778 44.738 36.1778 44.738 36.1778C44.738 36.1778 44.738 36.1778 44.738 36.1778C44.738 36.1778 44.738 36.1778 44.738 36.1778C44.738 36.1778 44.738 36.1778 44.738 36.1778C44.738 36.1778 44.738 36.1778 44.738 36.1778C44.738 36.1778 44.738 36.1778 44.738 36.1778C44.738 36.1778 44.738 36.1778 44.738 36.1778C44.738 36.1778 44.738 36.1778 44.738 36.1778C44.738 36.1778 44.738 36.1778 44.738 36.1778C44.738 36.1778 44.738 36.1778 44.738 36.1778C44.738 36.1778 44.738 36.1778 44.738 36.1778C44.738 36.1778 44.738 36.1778 44.738 36.1778C44.738 36.1778 44.738 36.1778 44.738 36.1778C44.738 36.1778 44.738 36.1778 44.738 36.1778C44.738 36.1778 44.738 36.1778 44.738 36.1778C44.738 36.1778 44.738 36.1778 44.738 36.1778C44.738 36.1778 44.738 36.1778 44.738 36.1778C44.738 36.1778 44.738 36.1778 44.738 36.1778C44.738 36.1778 44.738 36.1778 44.738 36.1778C44.738 36.1778 44.738 36.1778 44.738 36.1778C44.738 36.1778 44.738 36.1778 44.738 36.1778C44.738 36.1778 44.738 36.1778 44.738 36.1778C44.738 36.1778 44.738 36.1778 44.738 36.1778C44.738 36.1778 44.738 36.1778 44.738 36.1778C44.738 36.1778 44.738 36.1778 44.738 36.1778C44.738 36.1778 44.738 36.1778 44.738 36.1778C44.738 36.1778 44.738 36.1778 44.738 36.1778C44.738 36.1778 44.738 36.1778 44.738 36.1778C44.738 36.1778 44.738 36.1778 44.738 36.1778C44.738 36.1778 44.738 36.1778 44.738 36.1778C44.738 36.1778 44.738 36.1778 44.738 36.1778C44.738 36.1778 44.738 36.1778 44.738 36.1778C44.738 36.1778 44.738 36.1778 44.738 36.1778C44.738 36.1778 44.738 36.1778 44.738 36.1778C44.738 36.1778 44.738 36.1778 44.738 36.1778C44.738 36.1778 44.738 36.1778 44.738 36.1778C44.738 36.1778 44.738 36.1778 44.738 36.1778C44.738 36.1778 44.738 36.1778 44.738 36.1778C44.738 36.1778 44.738 36.1778 44.738 36.1778C44.738 36.1778 44.738 36.1778 44.738 36.1778C44.738 36.1778 44.738 36.1778 44.738 36.1778C44.738 36.1778 44.738 36.1778 44.738 36.1778C44.738 36.1778 44.738 36.1778 44.738 36.1778C44.738 36.1778 44.738 36.1778 44.738 36.1778C44.738 36.1778 44.738 36.1778 44.738 36.1778C44.738 36.1778 44.738 36.1778 44.738 36.1778C44.738 36.1778 44.738 36.1778 44.738 36.1778C44.738 36.1778 44.738 36.1778 44.738 36.1778C44.738 36.1778 44.738 36.1778 44.738 36.1778C44.738 36.1778 44.738 36.1778 44.738 36.1778C44.738 36.1778 44.738 36.1778 44.738 36.1778C44.738 36.1778 44.738 36.1778 44.738 36.1778C44.738 36.1778 44.738 36.1778 44.738 36.1778C44.738 36.1778 44.738 36.1778 44.738 36.1778C44.738 36.1778 44.738 36.1778 44.738 36.1778C44.738 36.1778 44.738 36.1778 44.738 36.1778C44.738 36.1778 44.738 36.1778 44.738 36.1778C44.738 36.1778 44.738 36.1778 44.738 36.1778C44.738 36.1778 44.738 36.1778 44.738 36.1778C44.738 36.1778 44.738 36.1778 44.738 36.1778C44.738 36.1778 44.738 36.1778 44.738 36.1778C44.738 36.1778 44.738 36.1778 44.738 36.1778C44.738 36.1778 44.738 36.1778 44.738 36.1778C44.738 36.1778 44.738 36.1778 44.738 36.1778C44.738 36.1778 44.738 36.1778 44.738 36.1778C44.738 36.1778 44.738 36.1778 44.738 36.1778C44.738 36.1778 44.738 36.1778 44.738 36.1778C44.738 36.1778 44.738 36.1778 44.738 36.1778C44.738 36.1778 44.738 36.1778 44.738 36.1778C44.738 36.1778 44.738 36.1778 44.738 36.1778C44.738 36.1778 44.738 36.1778 44.738 36.1778C44.738 36.1778 44.738 36.1778 44.738 36.1778C44.738 36.1778 44.738 36.1778 44.738 36.1778C44.738 36.1778 44.738 36.1778 44.738 36.1778C44.738 36.1778 44.738 36.1778 44.738 36.1778C44.738 36.1778 44.738 36.1778 44.738 36.1778C44.738 36.1778 44.738 36.1778 44.738 36.1778C44.738 36.1778 44.738 36.1778 44.738 36.1778C44.738 36.1778 44.738 36.1778 44.738 36.1778C44.738 36.1778 44.738 36.1778 44.738 36.1778C44.738 36.1778 44.738 36.1778 44.738 36.1778C44.738 36.1778 44.738 36.1778 44.738 36.1778C44.738 36.1778 44.738 36.1778 44.738 36.1778C44.738 36.1778 44.738 36.1778 44.738 36.1778C44.738 36.1778 44.738 36.1778 44.738 36.1778C44.738 36.1778 44.738 36.1778 44.738 36.1778C44.738 36.1778 44.738 36.1778 44.738 36.1778C44.738 36.1778 44.738 36.1778 44.738 36.1778C44.738 36.1778 44.738 36.1778 44.738 36.1778C44.738 36.1778 44.738 36.1778 44.738 36.1778C44.738 36.1778 44.738 36.1778 44.738 36.1778C44.738 36.1778 44.738 36.1778 44.738 36.1778C44.738 36.1778 44.738 36.1778 44.738 36.1778C44.738 36.1778 44.738 36.1778 44.738 36.1778C44.738 36.1778 44.738 36.1778 44.738 36.1778C44.738 36.1778 44.738 36.1778 44.738 36.1778C44.738 36.1778 44.738 36.1778 44.738 36.1778C44.738 36.1778 44.738 36.1778 44.738 36.1778C44.738 36.1778 44.738 36.1778 44.738 36.1778C44.738 36.1778 44.738 36.1778 44.738 36.1778C44.738 36.1778 44.738 36.1778 44.738 36.1778C44.738 36.1778 44.738 36.1778 44.738 36.1778C44.738 36.1778 44.738 36.1778 44.738 36.1778C44.738 36.1778 44.738 36.1778 44.738 36.1778C44.738 36.1778 44.738 36.1778 44.738 36.1778C44.738 36.1778 44.738 36.1778 44.738 36.1778C44.738 36.1778 44.738 36.1778 44.738 36.1778C44.738 36.1778 44.738 36.1778 44.738 36.1778C44.738 36.1778 44.738 36.1778 44.738 36.1778C44.738 36.1778 44.738 36.1778 44.738 36.1778C44.738 36.1778 44.738 36.1778 44.738 36.1778C44.738 36.1778 44.738 36.1778 44.738 36.1778C44.738 36.1778 44.738 36.1778 44.738 36.1778C44.738 36.1778 44.738 36.1778 44.738 36.1778C44.738 36.1778 44.738 36.1778 44.738 36.1778C44.738 36.1778 44.738 36.1778 44.738 36.1778C44.738 36.1778 44.738 36.1778 44.738 36.1778C44.738 36.1778 44.738 36.1778 44.738 36.1778C44.738 36.1778 44.738 36.1778 44.738 36.1778C44.738 36.1778 44.738 36.1778 44.738 36.1778C44.738 36.1778 44.738 36.1778 44.738 36.1778C44.738 36.1778 44.738 36.1778 44.738 36.1778C44.738 36.1778 44.738 36.1778 44.738 36.1778C44.738 36.1778 44.738 36.1778 44.738 36.1778C44.738 36.1778 44.738 36.1778 44.738 36.1778C44.738 36.1778 44.738 36.1778 44.738 36.1778C44.738 36.1778 44.738 36.1778 44.738 36.1778C44.738 36.1778 44.738 36.1778 44.738 36.1778C44.738 36.1778 44.738 36.1778 44.738 36.1778C44.738 36.1778 44.738 36.1778 44.738 36.1778C44.738 36.1778 44.738 36.1778 44.738 36.1778C44.738 36.1778 44.738 36.1778 44.738 36.1778C44.738 36.1778 44.738 36.1778 44.738 36.1778C44.738 36.1778 44.738 36.1778 44.738 36.1778C44.738 36.1778 44.738 36.1778 44.738 36.1778C44.738 36.1778 44.738 36.1778 44.738 36.1778C44.738 36.1778 44.738 36.1778 44.738 36.1778C44.738 36.1778 44.738 36.1778 44.738 36.1778C44.738 36.1778 44.738 36.1778 44.738 36.1778C44.738 36.1778 44.738 36.1778 44.738 36.1778C44.738 36.1778 44.738 36.1778 44.738 36.1778C44.738 36.1778 44.738 36.1778 44.738 36.1778C44.738 36.1778 44.738 36.1778 44.738 36.1778C44.738 36.1778 44.738 36.1778 44.738 36.1778C44.738 36.1778 44.738 36.1778 44.738 36.1778C44.738 36.1778 44.738 36.1778 44.738 36.1778C44.738 36.1778 44.738 36.1778 44.738 36.1778C44.738 36.1778 44.738 36.1778 44.738 36.1778C44.738 36.1778 44.738 36.1778 44.738 36.1778C44.738 36.1778 44.738 36.1778 44.738 36.1778C44.738 36.1778 44.738 36.1778 44.738 36.1778C44.738 36.1778 44.738 36.1778 44.738 36.1778C44.738 36.1778 44.738 36.1778 44.738 36.1778C44.738 36.1778 44.738 36.1778 44.738 36.1778C44.738 36.1778 44.738 36.1778 44.738 36.1778C44.738 36.1778 44.738 36.1778 44.738 36.1778C44.738 36.1778 44.738 36.1778 44.738 36.1778C44.738 36.1778 44.738 36.1778 44.738 36.1778C44.738 36.1778 44.738 36.1778 44.738 36.1778C44.738 36.1778 44.738 36.1778 44.738 36.1778C44.738 36.1778 44.738 36.1778 44.738 36.1778C44.738 36.1778 44.738 36.1778 44.738 36.1778C44.738 36.1778 44.738 36.1778 44.738 36.1778C44.738 36.1778 44.738 36.1778 44.738 36.1778C44.738 36.1778 44.738 36.1778 44.738 36.1778C44.738 36.1778 44.738 36.1778 44.738 36.1778C44.738 36.1778 44.738 36.1778 44.738 36.1778C44.738 36.1778 44.738 36.1778 44.738 36.1778C44.738 36.1778 44.738 36.1778 44.738 36.1778C44.738 36.1778 44.738 36.1778 44.738 36.1778C44.738 36.1778 44.738 36.1778 44.738 36.1778C44.738 36.1778 44.738 36.1778 44.738 36.1778C44.738 36.1778 44.738 36.1778 44.738 36.1778C44.738 36.1778 44.738 36.1778 44.738 36.1778C44.738 36.1778 44.738 36.1778 44.738 36.1778C44.738 36.1778 44.738 36.1778 44.738 36.1778C44.738 36.1778 44.738 36.1778 44.738 36.1778C44.738 36.1778 44.738 36.1778 44.738 36.1778C44.738 36.1778 44.738 36.1778 44.738 36.1778C44.738 36.1778 44.738 36.1778 44.738 36.1778C44.738 36.1778 44.738 36.1778 44.738 36.1778C44.738 36.1778 44.738 36.1778 44.738 36.1778C44.738 36.1778 44.738 36.1778 44.738 36.1778C44.738 36.1778 44.738 36.1778 44.738 36.1778C44.738 36.1778 44.738 36.1778 44.738 36.1778C44.738 36.1778 44.738 36.1778 44.738 36.1778C44.738 36.1778 44.738 36.1778 44.738 36.1778C44.738 36.1778 44.738 36.1778 44.738 36.1778C44.738 36.1778 44.738 36.1778 44.738 36.1778C44.738 36.1778 44.738 36.1778 44.738 36.1778C44.738 36.1778 44.738 36.1778 44.738 36.1778C44.738 36.1778 44.738 36.1778 44.738 36.1778C44.738 36.1778 44.738 36.1778 44.738 36.1778C44.738 36.1778 44.738 36.1778 44.738 36.1778C44.738 36.1778 44.738 36.1778 44.738 36.1778C44.738 36.1778 44.738 36.1778 44.738 36.1778C44.738 36.1778 44.738 36.1778 44.738 36.1778C44.738 36.1778 44.738 36.1778 44.738 36.1778C44.738 36.1778 44.738 36.1778 44.738 36.1778C44.738 36.1778 44.738 36.1778 44.738 36.1778C44.738 36.1778 44.738 36.1778 44.738 36.1778C44.738 36.1778 44.738 36.1778 44.738 36.1778C44.738 36.1778 44.738 36.1778 44.738 36.1778C44.738 36.1778 44.738 36.1778 44.738 36.1778C44.738 36.1778 44.738 36.1778 44.738 36.1778C44.738 36.1778 44.738 36.1778 44.738 36.1778C44.738 36.1778 44.738 36.1778 44.738 36.1778C44.738 36.1778 44.738 36.1778 44.738 36.1778C44.738 36.1778 44.738 36.1778 44.738 36.1778C44.738 36.1778 44.738 36.1778 44.738 36.1778C44.738 36.1778 44.738 36.1778 44.738 36.1778C44.738 36.1778 44.738 36.1778 44.738 36.1778C44.738 36.1778 44.738 36.1778 44.738 36.1778C44.738 36.1778 44.738 36.1778 44.738 36.1778C44.738 36.1778 44.738 36.1778 44.738 36.1778C44.738 36.1778 44.738 36.1778 44.738 36.1778C44.738 36.1778 44.738 36.1778 44.738 36.1778C44.738 36.1778 44.738 36.1778 44.738 36.1778C44.738 36.1778 44.738 36.1778 44.738 36.1778C44.738 36.1778 44.738 36.1778 44.738 36.1778C44.738 36.1778 44.738 36.1778 44.738 36.1778C44.738 36.1778 44.738 36.1778 44.738 36.1778C44.738 36.1778 44.738 36.1778 44.738 36.1778C44.738 36.1778 44.738 36.1778 44.738 36.1778C44.738 36.1778 44.738 36.1778 44.738 36.1778C44.738 36.1778 44.738 36.1778 44.738 36.1778C44.738 36.1778 44.738 36.1778 44.738 36.1778C44.738 36.1778 44.738 36.1778 44.738 36.1778C44.738 36.1778 44.738 36.1778 44.738 36.1778C44.738 36.1778 44.738 36.1778 44.738 36.1778C44.738 36.1778 44.738 36.1778 44.738 36.1778C44.738 36.1778 44.738 36.1778 44.738 36.1778C44.738 36.1778 44.738 36.1778 44.738 36.1778C44.738 36.1778 44.738 36.1778 44.738 36.1778C44.738 36.1778 44.738 36.1778 44.738 36.1778C44.738 36.1778 44.738 36.1778 44.738 36.1778C44.738 36.1778 44.738 36.1778 44.738 36.1778C44.738 36.1778 44.738 36.1778 44.738 36.1778C44.738 36.1778 44.738 36.1778 44.738 36.1778C44.738 36.1778 44.738 36.1778 44.738 36.1778C44.738 36.1778 44.738 36.1778 44.738 36.1778C44.738 36.1778 44.738 36.1778 44.738 36.1778C44.738 36.1778 44.738 36.1778 44.738 36.1778C44.738 36.1778 44.738 36.1778 44.738 36.1778C44.738 36.1778 44.738 36.1778 44.738 36.1778C44.738 36.1778 44.738 36.1778 44.738 36.1778C44.738 36.1778 44.738 36.1778 44.738 36.1778C44.738 36.1778 44.738 36.1778 44.738 36.1778C44.738 36.1778 44.738 36.1778 44.738 36.1778C44.738 36.1778 44.738 36.1778 44.738 36.1778C44.738 36.1778 44.738 36.1778 44.738 36.1778C44.738 36.1778 44.738 36.1778 44.738 36.1778C44.738 36.1778 44.738 36.1778 44.738 36.1778C44.738 36.1778 44.738 36.1778 44.738 36.1778C44.738 36.1778 44.738 36.1778 44.738 36.1778C44.738 36.1778 44.738 36.1778 44.738 36.1778C44.738 36.1778 44.738 36.1778 44.738 36.1778C44.738 36.1778 44.738 36.1778 44.738 36.1778C44.738 36.1778 44.738 36.1778 44.738 36.1778C44.738 36.1778 44.738 36.1778 44.738 36.1778C44.738 36.1778 44.738 36.1778 44.738 36.1778C44.738 36.1778 44.738 36.1778 44.738 36.1778C44.738 36.1778 44.738 36.1778 44.738 36.1778C44.738 36.1778 44.738 36.1778 44.738 36.1778C44.738 36.1778 44.738 36.1778 44.738 36.1778C44.738 36.1778 44.738 36.1778 44.738 36.1778C44.738 36.1778 44.738 36.1778 44.738 36.1778C44.738 36.1778 44.738 36.1778 44.738 36.1778C44.738 36.1778 44.738 36.1778 44.738 36.1778C44.738 36.1778 44.738 36.1778 44.738 36.1778C44.738 36.1778 44.738 36.1778 44.738 36.1778C44.738 36.1778 44.738 36.1778 44.738 36.1778C44.738 36.1778 44.738 36.1778 44.738 36.1778C44.738 36.1778 44.738 36.1778 44.738 36.1778C44.738 36.1777 44.738 36.1777 44.738 36.1777C44.738 36.1777 44.738 36.1777 44.738 36.1777C44.738 36.1777 44.738 36.1777 44.738 36.1777C44.738 36.1777 44.738 36.1777 44.738 36.1777C44.738 36.1777 44.738 36.1777 44.738 36.1777C44.738 36.1777 44.738 36.1777 44.738 36.1777C44.738 36.1777 44.738 36.1777 44.738 36.1777C44.738 36.1777 44.738 36.1777 44.738 36.1777C44.738 36.1777 44.738 36.1777 44.738 36.1777C44.738 36.1777 44.738 36.1777 44.738 36.1777C44.738 36.1777 44.738 36.1777 44.738 36.1777C44.738 36.1777 44.738 36.1777 44.738 36.1777C44.738 36.1777 44.738 36.1777 44.738 36.1777C44.738 36.1777 44.738 36.1777 44.738 36.1777C44.738 36.1777 44.738 36.1777 44.738 36.1777C44.738 36.1777 44.738 36.1777 44.738 36.1777C44.738 36.1777 44.738 36.1777 44.738 36.1777C44.738 36.1777 44.738 36.1777 44.738 36.1777C44.738 36.1777 44.738 36.1777 44.738 36.1777C44.738 36.1777 44.738 36.1777 44.738 36.1777C44.738 36.1777 44.738 36.1777 44.738 36.1777C44.738 36.1777 44.738 36.1777 44.738 36.1777C44.738 36.1777 44.738 36.1777 44.738 36.1777C44.738 36.1777 44.738 36.1777 44.738 36.1777C44.738 36.1777 44.738 36.1777 44.738 36.1777C44.738 36.1777 44.738 36.1777 44.738 36.1777C44.738 36.1777 44.738 36.1777 44.738 36.1777C44.738 36.1777 44.738 36.1777 44.738 36.1777C44.738 36.1777 44.738 36.1777 44.738 36.1777C44.738 36.1777 44.738 36.1777 44.738 36.1777C44.738 36.1777 44.738 36.1777 44.738 36.1777C44.738 36.1777 44.738 36.1777 44.738 36.1777C44.738 36.1777 44.738 36.1777 44.738 36.1777C44.738 36.1777 44.738 36.1777 44.738 36.1777C44.738 36.1777 44.738 36.1777 44.738 36.1777C44.738 36.1777 44.738 36.1777 44.738 36.1777C44.738 36.1777 44.738 36.1777 44.738 36.1777C44.738 36.1777 44.738 36.1777 44.738 36.1777C44.738 36.1777 44.738 36.1777 44.738 36.1777C44.738 36.1777 44.738 36.1777 44.738 36.1777C44.738 36.1777 44.738 36.1777 44.738 36.1777H43.238ZM44 35.4277H43.988V36.9277H44V35.4277ZM43.2287 12.1568L43.25 36.1784L44.75 36.1771L44.7287 12.1554L43.2287 12.1568ZM43.2378 11.8228C43.2379 11.9205 43.2352 12.0178 43.2299 12.1148L44.7276 12.1974C44.7345 12.0725 44.7379 11.9472 44.7378 11.8214L43.2378 11.8228Z" fill="#146EF5"/>
<path d="M10 28V32.5098C10 36.6465 16.268 39.9999 24 39.9999C31.732 39.9999 38 36.6465 38 32.5098V28" stroke="white" stroke-width="1.5" stroke-linecap="round" stroke-linejoin="round"/>
<path d="M10 21.75V26.911C10 31.0477 16.268 34.4011 24 34.4011C31.732 34.4011 38 31.0477 38 26.911V21.75" stroke="white" stroke-width="1.5" stroke-linecap="round" stroke-linejoin="round"/>
<path d="M10 14.75V20.8014C10 24.9381 16.268 28.2916 24 28.2916C31.732 28.2916 38 24.9381 38 20.8014V14.75" stroke="white" stroke-width="1.5" stroke-linecap="round" stroke-linejoin="round"/>
<path d="M38 15.0995C38 11.1785 31.732 8 24 8C16.268 8 10 11.1785 10 15.0995C10 19.0204 16.268 22.1989 24 22.1989C31.732 22.1989 38 19.0204 38 15.0995Z" stroke="white" stroke-width="1.5" stroke-linecap="round" stroke-linejoin="round"/>
</svg>
