<svg width="48" height="48" viewBox="0 0 48 48" fill="none" xmlns="http://www.w3.org/2000/svg">
<path d="M4.5 10.5C4.5 7.18629 7.18629 4.5 10.5 4.5H37.5C40.8137 4.5 43.5 7.18629 43.5 10.5V37.5C43.5 40.8137 40.8137 43.5 37.5 43.5H10.5C7.18629 43.5 4.5 40.8137 4.5 37.5V10.5Z" stroke="#146EF5" stroke-width="1.5"/>
<path d="M17 10H10.1875C10.0839 10 10 10.0839 10 10.1875V17M31 10H37.8125C37.9161 10 38 10.0839 38 10.1875V17M38 31V37.8125C38 37.9161 37.9161 38 37.8125 38H31M17 38H10.1875C10.0839 38 10 37.9161 10 37.8125V31" stroke="#898989" stroke-width="1.5"/>
<circle cx="24" cy="24" r="8" stroke="white" stroke-width="1.5"/>
<circle cx="24" cy="24" r="2.25" fill="white"/>
</svg>
