<svg width="48" height="48" viewBox="0 0 48 48" fill="none" xmlns="http://www.w3.org/2000/svg">
<path d="M21.0092 2.71972C22.8609 1.65497 25.1391 1.65498 26.9908 2.71973L40.9908 10.7697C42.8524 11.8401 44 13.8238 44 15.9712V32.0288C44 34.1762 42.8524 36.1599 40.9908 37.2303L26.9908 45.2803C25.1391 46.345 22.8609 46.345 21.0092 45.2803L7.00917 37.2303C5.1476 36.1599 4 34.1762 4 32.0288V15.9712C4 13.8238 5.1476 11.8401 7.00917 10.7697L21.0092 2.71972Z" stroke="#146EF5" stroke-width="1.5"/>
<path d="M38.5 21V17.1808C38.5 16.4523 38.104 15.7815 37.4662 15.4296L24.9662 8.53305C24.3648 8.20126 23.6352 8.20126 23.0338 8.53305L10.5338 15.4296C9.89604 15.7815 9.5 16.4523 9.5 17.1808V30.8192C9.5 31.5477 9.89604 32.2185 10.5338 32.5704L22.5169 39.1817C23.1834 39.5495 24 39.0674 24 38.3062V24" stroke="white" stroke-width="1.5" stroke-linejoin="round"/>
<path d="M38.5 16L24 24L9.5 16" stroke="white" stroke-width="1.5"/>
<path fill-rule="evenodd" clip-rule="evenodd" d="M38 31C38 33.2091 36.2091 35 34 35C31.7909 35 30 33.2091 30 31C30 30.2749 30.1998 29.5552 30.5716 28.9382L33.0392 24.6641C33.4662 23.9245 34.5338 23.9245 34.9608 24.6641L37.429 28.9392C37.8004 29.5559 38 30.2753 38 31Z" stroke="#898989" stroke-width="1.5"/>
</svg>
