<svg width="48" height="48" viewBox="0 0 48 48" fill="none" xmlns="http://www.w3.org/2000/svg">
<path d="M38.5 5.25H9.5V3.75H38.5V5.25ZM5.25 9.5V38.5H3.75V9.5H5.25ZM9.5 42.75H38.5V44.25H9.5V42.75ZM42.75 38.5V9.5H44.25V38.5H42.75ZM38.5 42.75C40.8472 42.75 42.75 40.8472 42.75 38.5H44.25C44.25 41.6756 41.6756 44.25 38.5 44.25V42.75ZM5.25 38.5C5.25 40.8472 7.15279 42.75 9.5 42.75V44.25C6.32436 44.25 3.75 41.6756 3.75 38.5H5.25ZM9.5 5.25C7.15279 5.25 5.25 7.15279 5.25 9.5H3.75C3.75 6.32436 6.32436 3.75 9.5 3.75V5.25ZM38.5 3.75C41.6756 3.75 44.25 6.32436 44.25 9.5H42.75C42.75 7.15279 40.8472 5.25 38.5 5.25V3.75Z" fill="#146EF5"/>
<path d="M30.3279 14H37.8125C37.9161 14 38 14.0839 38 14.1875V37.8125C38 37.9161 37.9161 38 37.8125 38H14.1875C14.0839 38 14 37.9161 14 37.8125V30.3279" stroke="#898989" stroke-width="1.5"/>
<path d="M13 25L25 25L25 13" stroke="white" stroke-width="1.5"/>
<path d="M24.623 24.3754L10.2363 10.4822" stroke="white" stroke-width="1.5"/>
</svg>
